<mxfile host="app.diagrams.net" modified="2023-07-17T07:23:00.068Z" agent="Mozilla/5.0 (X11; Ubuntu; Linux x86_64; rv:109.0) Gecko/20100101 Firefox/115.0" etag="fxNrnCvoLp7woCD7jGDx" version="21.6.2" type="device">
  <diagram name="Page-1" id="NusJIsY9rlmzWl7yopvE">
    <mxGraphModel dx="1195" dy="638" grid="1" gridSize="10" guides="1" tooltips="1" connect="1" arrows="1" fold="1" page="1" pageScale="1" pageWidth="850" pageHeight="1100" math="0" shadow="0">
      <root>
        <mxCell id="0" />
        <mxCell id="1" parent="0" />
        <mxCell id="PjN3QpEp_4zu11sGV6aB-25" style="edgeStyle=orthogonalEdgeStyle;rounded=0;orthogonalLoop=1;jettySize=auto;html=1;entryX=0.366;entryY=0.996;entryDx=0;entryDy=0;entryPerimeter=0;exitX=0.53;exitY=1.013;exitDx=0;exitDy=0;exitPerimeter=0;" parent="1" edge="1">
          <mxGeometry relative="1" as="geometry">
            <mxPoint x="460.02" y="553.01" as="sourcePoint" />
            <mxPoint x="738.9799999999998" y="530" as="targetPoint" />
            <Array as="points">
              <mxPoint x="459.72" y="620.28" />
              <mxPoint x="738.72" y="620.28" />
            </Array>
          </mxGeometry>
        </mxCell>
        <mxCell id="PjN3QpEp_4zu11sGV6aB-28" value="User Details" style="edgeLabel;html=1;align=center;verticalAlign=middle;resizable=0;points=[];" parent="PjN3QpEp_4zu11sGV6aB-25" vertex="1" connectable="0">
          <mxGeometry x="-0.0704" y="1" relative="1" as="geometry">
            <mxPoint x="25" as="offset" />
          </mxGeometry>
        </mxCell>
        <mxCell id="PjN3QpEp_4zu11sGV6aB-35" style="edgeStyle=orthogonalEdgeStyle;rounded=0;orthogonalLoop=1;jettySize=auto;html=1;exitX=0.694;exitY=0.987;exitDx=0;exitDy=0;exitPerimeter=0;entryX=0.37;entryY=1.019;entryDx=0;entryDy=0;entryPerimeter=0;" parent="1" source="PjN3QpEp_4zu11sGV6aB-2" target="PjN3QpEp_4zu11sGV6aB-4" edge="1">
          <mxGeometry relative="1" as="geometry">
            <mxPoint x="710" y="550" as="targetPoint" />
            <Array as="points">
              <mxPoint x="476" y="600" />
              <mxPoint x="720" y="600" />
              <mxPoint x="720" y="550" />
              <mxPoint x="721" y="550" />
            </Array>
          </mxGeometry>
        </mxCell>
        <mxCell id="PjN3QpEp_4zu11sGV6aB-36" value="&lt;div&gt;Book Records&lt;br&gt;&lt;/div&gt;" style="edgeLabel;html=1;align=center;verticalAlign=middle;resizable=0;points=[];" parent="PjN3QpEp_4zu11sGV6aB-35" vertex="1" connectable="0">
          <mxGeometry x="0.0547" relative="1" as="geometry">
            <mxPoint x="4" as="offset" />
          </mxGeometry>
        </mxCell>
        <mxCell id="PjN3QpEp_4zu11sGV6aB-42" value="Feedback info" style="edgeStyle=orthogonalEdgeStyle;rounded=0;orthogonalLoop=1;jettySize=auto;html=1;exitX=0.796;exitY=0.924;exitDx=0;exitDy=0;exitPerimeter=0;" parent="1" source="PjN3QpEp_4zu11sGV6aB-2" target="PjN3QpEp_4zu11sGV6aB-4" edge="1">
          <mxGeometry x="0.1298" relative="1" as="geometry">
            <Array as="points">
              <mxPoint x="497" y="580" />
              <mxPoint x="700" y="580" />
            </Array>
            <mxPoint as="offset" />
          </mxGeometry>
        </mxCell>
        <mxCell id="PjN3QpEp_4zu11sGV6aB-2" value="&lt;font style=&quot;font-size: 23px;&quot;&gt;E-library Management System&lt;/font&gt;" style="ellipse;whiteSpace=wrap;html=1;" parent="1" vertex="1">
          <mxGeometry x="330" y="340" width="210" height="210" as="geometry" />
        </mxCell>
        <mxCell id="PjN3QpEp_4zu11sGV6aB-20" value="" style="edgeStyle=orthogonalEdgeStyle;rounded=0;orthogonalLoop=1;jettySize=auto;html=1;" parent="1" source="PjN3QpEp_4zu11sGV6aB-3" target="PjN3QpEp_4zu11sGV6aB-2" edge="1">
          <mxGeometry relative="1" as="geometry">
            <Array as="points">
              <mxPoint x="190" y="490" />
              <mxPoint x="190" y="490" />
            </Array>
          </mxGeometry>
        </mxCell>
        <mxCell id="PjN3QpEp_4zu11sGV6aB-40" value="Cancelation request" style="edgeLabel;html=1;align=center;verticalAlign=middle;resizable=0;points=[];" parent="PjN3QpEp_4zu11sGV6aB-20" vertex="1" connectable="0">
          <mxGeometry x="-0.187" y="2" relative="1" as="geometry">
            <mxPoint x="15" as="offset" />
          </mxGeometry>
        </mxCell>
        <mxCell id="PjN3QpEp_4zu11sGV6aB-3" value="User" style="rounded=0;whiteSpace=wrap;html=1;" parent="1" vertex="1">
          <mxGeometry x="70" y="470" width="110" height="70" as="geometry" />
        </mxCell>
        <mxCell id="PjN3QpEp_4zu11sGV6aB-17" value="Updated Book info" style="edgeStyle=orthogonalEdgeStyle;rounded=0;orthogonalLoop=1;jettySize=auto;html=1;entryX=0.876;entryY=0.157;entryDx=0;entryDy=0;entryPerimeter=0;" parent="1" source="PjN3QpEp_4zu11sGV6aB-4" target="PjN3QpEp_4zu11sGV6aB-2" edge="1">
          <mxGeometry x="0.2703" relative="1" as="geometry">
            <Array as="points">
              <mxPoint x="735" y="373" />
            </Array>
            <mxPoint as="offset" />
          </mxGeometry>
        </mxCell>
        <mxCell id="PjN3QpEp_4zu11sGV6aB-21" style="edgeStyle=orthogonalEdgeStyle;rounded=0;orthogonalLoop=1;jettySize=auto;html=1;entryX=0.933;entryY=0.23;entryDx=0;entryDy=0;entryPerimeter=0;exitX=0.351;exitY=-0.011;exitDx=0;exitDy=0;exitPerimeter=0;" parent="1" source="PjN3QpEp_4zu11sGV6aB-4" target="PjN3QpEp_4zu11sGV6aB-2" edge="1">
          <mxGeometry relative="1" as="geometry">
            <Array as="points">
              <mxPoint x="719" y="388" />
              <mxPoint x="610" y="388" />
            </Array>
          </mxGeometry>
        </mxCell>
        <mxCell id="PjN3QpEp_4zu11sGV6aB-22" value="Book to be issued" style="edgeLabel;html=1;align=center;verticalAlign=middle;resizable=0;points=[];" parent="PjN3QpEp_4zu11sGV6aB-21" vertex="1" connectable="0">
          <mxGeometry x="0.2323" y="-1" relative="1" as="geometry">
            <mxPoint x="-1" y="3" as="offset" />
          </mxGeometry>
        </mxCell>
        <mxCell id="PjN3QpEp_4zu11sGV6aB-31" value="User Update" style="edgeStyle=orthogonalEdgeStyle;rounded=0;orthogonalLoop=1;jettySize=auto;html=1;entryX=0.98;entryY=0.336;entryDx=0;entryDy=0;entryPerimeter=0;exitX=0.139;exitY=0.014;exitDx=0;exitDy=0;exitPerimeter=0;" parent="1" source="PjN3QpEp_4zu11sGV6aB-4" target="PjN3QpEp_4zu11sGV6aB-2" edge="1">
          <mxGeometry x="0.1022" y="-1" relative="1" as="geometry">
            <mxPoint as="offset" />
          </mxGeometry>
        </mxCell>
        <mxCell id="PjN3QpEp_4zu11sGV6aB-4" value="&lt;div&gt;Librarian&lt;/div&gt;" style="rounded=0;whiteSpace=wrap;html=1;" parent="1" vertex="1">
          <mxGeometry x="680" y="460" width="110" height="70" as="geometry" />
        </mxCell>
        <mxCell id="PjN3QpEp_4zu11sGV6aB-5" value="Books to be searched" style="endArrow=classic;html=1;rounded=0;exitX=0.018;exitY=0.013;exitDx=0;exitDy=0;entryX=0.095;entryY=0.19;entryDx=0;entryDy=0;entryPerimeter=0;exitPerimeter=0;" parent="1" source="PjN3QpEp_4zu11sGV6aB-3" target="PjN3QpEp_4zu11sGV6aB-2" edge="1">
          <mxGeometry x="0.187" width="50" height="50" relative="1" as="geometry">
            <mxPoint x="400" y="450" as="sourcePoint" />
            <mxPoint x="450" y="400" as="targetPoint" />
            <Array as="points">
              <mxPoint x="72" y="380" />
            </Array>
            <mxPoint as="offset" />
          </mxGeometry>
        </mxCell>
        <mxCell id="PjN3QpEp_4zu11sGV6aB-7" value="&lt;div&gt;Book Details&lt;/div&gt;&lt;div&gt;(Title,Publication, Author, Subject)&lt;/div&gt;" style="endArrow=classic;html=1;rounded=0;entryX=0.089;entryY=1.009;entryDx=0;entryDy=0;entryPerimeter=0;exitX=0.41;exitY=0.992;exitDx=0;exitDy=0;exitPerimeter=0;" parent="1" source="PjN3QpEp_4zu11sGV6aB-2" target="PjN3QpEp_4zu11sGV6aB-3" edge="1">
          <mxGeometry x="0.0164" width="50" height="50" relative="1" as="geometry">
            <mxPoint x="416.3100000000002" y="558.18" as="sourcePoint" />
            <mxPoint x="79.67999999999995" y="550" as="targetPoint" />
            <Array as="points">
              <mxPoint x="416" y="629.86" />
              <mxPoint x="80" y="629.86" />
            </Array>
            <mxPoint as="offset" />
          </mxGeometry>
        </mxCell>
        <mxCell id="PjN3QpEp_4zu11sGV6aB-8" value="Book request/return" style="endArrow=classic;html=1;rounded=0;exitX=0.094;exitY=0.005;exitDx=0;exitDy=0;entryX=0.039;entryY=0.29;entryDx=0;entryDy=0;entryPerimeter=0;exitPerimeter=0;" parent="1" source="PjN3QpEp_4zu11sGV6aB-3" target="PjN3QpEp_4zu11sGV6aB-2" edge="1">
          <mxGeometry x="0.1104" width="50" height="50" relative="1" as="geometry">
            <mxPoint x="98" y="478" as="sourcePoint" />
            <mxPoint x="360" y="390" as="targetPoint" />
            <Array as="points">
              <mxPoint x="80" y="400" />
            </Array>
            <mxPoint as="offset" />
          </mxGeometry>
        </mxCell>
        <mxCell id="PjN3QpEp_4zu11sGV6aB-9" value="" style="endArrow=classic;html=1;rounded=0;entryX=0.178;entryY=1.006;entryDx=0;entryDy=0;entryPerimeter=0;exitX=0.311;exitY=0.979;exitDx=0;exitDy=0;exitPerimeter=0;" parent="1" source="PjN3QpEp_4zu11sGV6aB-2" target="PjN3QpEp_4zu11sGV6aB-3" edge="1">
          <mxGeometry width="50" height="50" relative="1" as="geometry">
            <mxPoint x="359.82000000000005" y="520" as="sourcePoint" />
            <mxPoint x="90.17999999999995" y="545.7" as="targetPoint" />
            <Array as="points">
              <mxPoint x="395" y="605" />
              <mxPoint x="90" y="604.86" />
            </Array>
          </mxGeometry>
        </mxCell>
        <mxCell id="PjN3QpEp_4zu11sGV6aB-12" value="Book availability status" style="edgeLabel;html=1;align=center;verticalAlign=middle;resizable=0;points=[];" parent="PjN3QpEp_4zu11sGV6aB-9" vertex="1" connectable="0">
          <mxGeometry x="-0.0112" y="-1" relative="1" as="geometry">
            <mxPoint as="offset" />
          </mxGeometry>
        </mxCell>
        <mxCell id="PjN3QpEp_4zu11sGV6aB-11" value="Feedback" style="endArrow=classic;html=1;rounded=0;exitX=0.182;exitY=0.001;exitDx=0;exitDy=0;entryX=0.006;entryY=0.38;entryDx=0;entryDy=0;entryPerimeter=0;exitPerimeter=0;" parent="1" source="PjN3QpEp_4zu11sGV6aB-3" target="PjN3QpEp_4zu11sGV6aB-2" edge="1">
          <mxGeometry x="0.0989" width="50" height="50" relative="1" as="geometry">
            <mxPoint x="130" y="480" as="sourcePoint" />
            <mxPoint x="348" y="411" as="targetPoint" />
            <Array as="points">
              <mxPoint x="90" y="420" />
            </Array>
            <mxPoint as="offset" />
          </mxGeometry>
        </mxCell>
        <mxCell id="PjN3QpEp_4zu11sGV6aB-14" value="Payment Receipt" style="endArrow=classic;html=1;rounded=0;exitX=0.271;exitY=-0.003;exitDx=0;exitDy=0;entryX=-0.01;entryY=0.472;entryDx=0;entryDy=0;entryPerimeter=0;exitPerimeter=0;" parent="1" source="PjN3QpEp_4zu11sGV6aB-3" target="PjN3QpEp_4zu11sGV6aB-2" edge="1">
          <mxGeometry x="0.0073" width="50" height="50" relative="1" as="geometry">
            <mxPoint x="100" y="480" as="sourcePoint" />
            <mxPoint x="341" y="430" as="targetPoint" />
            <Array as="points">
              <mxPoint x="100" y="440" />
            </Array>
            <mxPoint as="offset" />
          </mxGeometry>
        </mxCell>
        <mxCell id="PjN3QpEp_4zu11sGV6aB-15" value="" style="endArrow=classic;html=1;rounded=0;entryX=0.268;entryY=1.005;entryDx=0;entryDy=0;entryPerimeter=0;exitX=0.225;exitY=0.925;exitDx=0;exitDy=0;exitPerimeter=0;" parent="1" source="PjN3QpEp_4zu11sGV6aB-2" target="PjN3QpEp_4zu11sGV6aB-3" edge="1">
          <mxGeometry width="50" height="50" relative="1" as="geometry">
            <mxPoint x="369.82000000000005" y="530" as="sourcePoint" />
            <mxPoint x="100" y="550" as="targetPoint" />
            <Array as="points">
              <mxPoint x="377" y="590" />
              <mxPoint x="100" y="590" />
            </Array>
          </mxGeometry>
        </mxCell>
        <mxCell id="PjN3QpEp_4zu11sGV6aB-16" value="Reminders for due date" style="edgeLabel;html=1;align=center;verticalAlign=middle;resizable=0;points=[];" parent="PjN3QpEp_4zu11sGV6aB-15" vertex="1" connectable="0">
          <mxGeometry x="-0.0112" y="-1" relative="1" as="geometry">
            <mxPoint as="offset" />
          </mxGeometry>
        </mxCell>
        <mxCell id="PjN3QpEp_4zu11sGV6aB-38" value="" style="edgeStyle=orthogonalEdgeStyle;rounded=0;orthogonalLoop=1;jettySize=auto;html=1;entryX=0;entryY=1;entryDx=0;entryDy=0;" parent="1" target="PjN3QpEp_4zu11sGV6aB-2" edge="1">
          <mxGeometry relative="1" as="geometry">
            <mxPoint x="180" y="520" as="sourcePoint" />
            <mxPoint x="336" y="520" as="targetPoint" />
            <Array as="points">
              <mxPoint x="290" y="520" />
            </Array>
          </mxGeometry>
        </mxCell>
        <mxCell id="PjN3QpEp_4zu11sGV6aB-39" value="Login/Registration Info" style="edgeLabel;html=1;align=center;verticalAlign=middle;resizable=0;points=[];" parent="PjN3QpEp_4zu11sGV6aB-38" vertex="1" connectable="0">
          <mxGeometry x="-0.3195" relative="1" as="geometry">
            <mxPoint x="19" as="offset" />
          </mxGeometry>
        </mxCell>
        <mxCell id="PjN3QpEp_4zu11sGV6aB-45" value="Fine to be issued" style="endArrow=classic;html=1;rounded=0;exitX=0.182;exitY=0.888;exitDx=0;exitDy=0;exitPerimeter=0;entryX=0.375;entryY=1;entryDx=0;entryDy=0;entryPerimeter=0;" parent="1" source="PjN3QpEp_4zu11sGV6aB-2" target="PjN3QpEp_4zu11sGV6aB-3" edge="1">
          <mxGeometry x="0.0452" width="50" height="50" relative="1" as="geometry">
            <mxPoint x="310" y="520" as="sourcePoint" />
            <mxPoint x="130" y="570" as="targetPoint" />
            <Array as="points">
              <mxPoint x="368" y="570" />
              <mxPoint x="111" y="570" />
            </Array>
            <mxPoint as="offset" />
          </mxGeometry>
        </mxCell>
      </root>
    </mxGraphModel>
  </diagram>
</mxfile>
